<svg width="147" height="17" viewBox="0 0 147 17" fill="none" xmlns="http://www.w3.org/2000/svg">
<path d="M19.6199 12.1395C19.6199 12.8192 19.4935 13.4554 19.2406 14.0481C18.9877 14.633 18.6399 15.1467 18.1973 15.5893C17.7627 16.0239 17.249 16.3677 16.6562 16.6206C16.0714 16.8735 15.443 17 14.7713 17H0V14.5697H14.7713C15.1111 14.5697 15.4272 14.5065 15.7197 14.3801C16.0121 14.2536 16.265 14.0797 16.4784 13.8584C16.6997 13.6371 16.8735 13.3803 17 13.0879C17.1265 12.7875 17.1897 12.4714 17.1897 12.1395C17.1897 11.8075 17.1265 11.4954 17 11.2029C16.8735 10.9105 16.6997 10.6536 16.4784 10.4324C16.265 10.2111 16.0121 10.0372 15.7197 9.91074C15.4272 9.78429 15.1111 9.72106 14.7713 9.72106H4.86053C4.19665 9.72106 3.56834 9.59461 2.97559 9.3417C2.38285 9.0888 1.86518 8.745 1.42259 8.31032C0.987913 7.86774 0.640167 7.35007 0.379358 6.75732C0.126453 6.16457 0 5.53231 0 4.86053C0 4.19665 0.126453 3.56834 0.379358 2.97559C0.640167 2.38285 0.987913 1.86913 1.42259 1.43445C1.86518 0.991864 2.38285 0.644119 2.97559 0.391213C3.56834 0.130404 4.19665 0 4.86053 0H18.4107V2.43026H4.86053C4.52859 2.43026 4.21246 2.49349 3.91213 2.61994C3.61971 2.7464 3.36285 2.92027 3.14156 3.14156C2.92027 3.36285 2.7464 3.62366 2.61994 3.92399C2.49349 4.21641 2.43026 4.52859 2.43026 4.86053C2.43026 5.19247 2.49349 5.5086 2.61994 5.80893C2.7464 6.10135 2.92027 6.35821 3.14156 6.5795C3.36285 6.80079 3.61971 6.97466 3.91213 7.10112C4.21246 7.22757 4.52859 7.29079 4.86053 7.29079H14.7713C15.443 7.29079 16.0714 7.4212 16.6562 7.68201C17.249 7.93491 17.7627 8.28266 18.1973 8.72524C18.6399 9.15993 18.9877 9.67364 19.2406 10.2664C19.4935 10.8512 19.6199 11.4756 19.6199 12.1395Z" fill="white"/>
<path d="M40.5197 13.0642C40.5197 13.6095 40.3893 14.1232 40.1285 14.6053C39.8756 15.0795 39.5279 15.4944 39.0853 15.8501C38.6506 16.2057 38.1369 16.4863 37.5442 16.6918C36.9514 16.8973 36.3231 17 35.6592 17H25.215V14.5697H35.6592C35.9912 14.5697 36.3033 14.5342 36.5958 14.463C36.8961 14.384 37.1569 14.2773 37.3782 14.143C37.5995 14.0007 37.7733 13.8387 37.8998 13.6569C38.0263 13.4751 38.0895 13.2775 38.0895 13.0642V12.4596H30.0518C29.3879 12.4596 28.7596 12.3331 28.1669 12.0802C27.582 11.8194 27.0683 11.4716 26.6257 11.037C26.1911 10.5944 25.8473 10.0807 25.5944 9.49582C25.3415 8.90307 25.215 8.2708 25.215 7.59902V3.65132H27.6216V7.59902C27.6216 7.93887 27.6848 8.25895 27.8112 8.55927C27.9377 8.8517 28.1116 9.10855 28.3329 9.32985C28.5541 9.54324 28.811 9.71316 29.1034 9.83961C29.4038 9.96606 29.7199 10.0293 30.0518 10.0293H38.0895V3.65132H40.5197V13.0642Z" fill="white"/>
<path d="M59.6769 17C59.6769 16.1148 59.5267 15.2573 59.2264 14.4275C58.934 13.5897 58.5348 12.8033 58.029 12.0683C57.5311 11.3254 56.9502 10.6339 56.2864 9.99372C55.6304 9.35356 54.9388 8.78452 54.2117 8.28661C53.4846 7.7808 52.7417 7.35797 51.983 7.01813C51.2322 6.67039 50.5169 6.41353 49.8373 6.24756V17H47.407V3.65132H48.7229V3.67503C49.5923 3.72245 50.5169 3.91609 51.497 4.25593C52.4849 4.58787 53.4649 5.04231 54.437 5.61925C55.417 6.18828 56.3575 6.86797 57.2585 7.6583C58.1673 8.44073 58.9735 9.30614 59.6769 10.2545V3.65132H62.0953V17H59.6769Z" fill="white"/>
<path d="M81.3828 17C81.3828 16.1148 81.2327 15.2573 80.9323 14.4275C80.6399 13.5897 80.2408 12.8033 79.735 12.0683C79.2371 11.3254 78.6562 10.6339 77.9923 9.99372C77.3363 9.35356 76.6448 8.78452 75.9177 8.28661C75.1906 7.7808 74.4477 7.35797 73.6889 7.01813C72.9381 6.67039 72.2229 6.41353 71.5432 6.24756V17H69.1129V3.65132H70.4288V3.67503C71.2982 3.72245 72.2229 3.91609 73.2029 4.25593C74.1908 4.58787 75.1708 5.04231 76.1429 5.61925C77.1229 6.18828 78.0634 6.86797 78.9644 7.6583C79.8733 8.44073 80.6794 9.30614 81.3828 10.2545V3.65132H83.8012V17H81.3828Z" fill="white"/>
<path d="M104.76 17H90.8189V3.60391H104.76V6.04603H93.2729V14.546H104.76V17ZM103.207 11.4637H94.4228V9.00976H103.207V11.4637Z" fill="white"/>
<path d="M125.53 17H122.353L117.492 11.9972L112.643 17H109.431L115.892 10.3494L109.431 3.65132H112.643L125.53 17ZM125.53 3.65132L119.78 9.61437L118.203 7.96653L122.353 3.65132H125.53Z" fill="white"/>
<path d="M146.287 17H143.857V13.3368H134.503V10.8591H143.857V6.04603H137.538C136.946 6.04603 136.388 6.16062 135.867 6.38982C135.345 6.61111 134.891 6.91539 134.503 7.30265C134.116 7.68991 133.808 8.14435 133.579 8.66597C133.357 9.17968 133.247 9.73291 133.247 10.3257V17H130.793V10.3257C130.793 9.39307 130.971 8.51976 131.326 7.70572C131.682 6.89168 132.164 6.18038 132.773 5.57183C133.381 4.96327 134.096 4.48512 134.918 4.13738C135.74 3.78173 136.614 3.60391 137.538 3.60391H146.287V17Z" fill="white"/>
</svg>
